<svg width="51" height="51" viewBox="0 0 51 51" fill="none" xmlns="http://www.w3.org/2000/svg">
<path d="M3 12C3 9.61305 3.94821 7.32387 5.63604 5.63604C7.32387 3.94821 9.61305 3 12 3H39C41.3869 3 43.6761 3.94821 45.364 5.63604C47.0518 7.32387 48 9.61305 48 12V39C48 41.3869 47.0518 43.6761 45.364 45.364C43.6761 47.0518 41.3869 48 39 48H12C9.61305 48 7.32387 47.0518 5.63604 45.364C3.94821 43.6761 3 41.3869 3 39V12Z" stroke="#BDBDBD" stroke-width="4.5" stroke-linecap="round" stroke-linejoin="round"/>
<path d="M17.625 23.25C20.7316 23.25 23.25 20.7316 23.25 17.625C23.25 14.5184 20.7316 12 17.625 12C14.5184 12 12 14.5184 12 17.625C12 20.7316 14.5184 23.25 17.625 23.25Z" stroke="#BDBDBD" stroke-width="4.5" stroke-linecap="round" stroke-linejoin="round"/>
<path d="M31.1835 26.8972L12 47.9999H39.2992C41.6068 47.9999 43.8199 47.0833 45.4516 45.4516C47.0833 43.8199 48 41.6068 48 39.2992V38.9999C48 37.9514 47.6062 37.5487 46.8975 36.7724L37.83 26.8837C37.4074 26.4227 36.8933 26.0549 36.3206 25.8036C35.7479 25.5524 35.1292 25.4233 34.5038 25.4246C33.8784 25.4259 33.2601 25.5575 32.6885 25.811C32.1168 26.0646 31.6042 26.4345 31.1835 26.8972V26.8972Z" stroke="#BDBDBD" stroke-width="4.5" stroke-linecap="round" stroke-linejoin="round"/>
</svg>
