<svg width="184" height="123" viewBox="0 0 184 123" fill="none" xmlns="http://www.w3.org/2000/svg">
<path d="M19.0509 36.1804H10.4948V7.91144H0.0200195V0H29.5257V7.91144H19.0509V36.1804ZM11.595 35.0494H17.9456V6.77511H28.4204V1.13633H1.12016V6.78047H11.595V35.0494Z" fill="white"/>
<path d="M35.2983 0.567993H42.8794V13.7591H57.6036V0.567993H65.1847V35.939H57.6036V20.6521H42.8794V35.939H35.2983V0.567993Z" fill="white"/>
<path d="M68.355 0.567993H91.7291V7.76119H75.9361V14.3541H90.8584V21.5472H75.9361V28.7404H92.605V35.9336H68.355V0.567993Z" fill="white"/>
<path d="M16.4917 78.4125H2.09082V42.5162H15.2508C16.7316 42.5162 18.2436 42.6234 19.7452 42.8432C21.2833 43.0629 22.6859 43.5132 23.9164 44.1778C25.1729 44.8585 26.2053 45.8234 26.9874 47.0454C27.7747 48.2836 28.1762 49.9238 28.1762 51.9231C28.1762 54.0135 27.5922 55.7823 26.4451 57.1759C25.6526 58.1354 24.6724 58.9126 23.5201 59.4915C24.0676 59.663 24.589 59.8774 25.0791 60.1347C26.0437 60.6385 26.8831 61.2925 27.5766 62.075C28.2752 62.863 28.8175 63.7902 29.1929 64.8408C29.5631 65.8807 29.7508 67.0063 29.7508 68.1801C29.7508 70.1151 29.3337 71.7606 28.5151 73.0792C27.7069 74.3763 26.6537 75.4323 25.3763 76.2309C24.1197 77.0135 22.6859 77.5816 21.1217 77.9193C19.5784 78.2463 18.0246 78.4125 16.4917 78.4125ZM3.19618 77.2815H16.4969C17.9516 77.2815 19.4324 77.1207 20.8975 76.8044C22.3418 76.4936 23.6557 75.9683 24.808 75.2554C25.9394 74.5532 26.8779 73.6099 27.5922 72.4628C28.2961 71.3318 28.6506 69.89 28.6506 68.1748C28.6506 67.1349 28.4838 66.1433 28.1605 65.2267C27.8373 64.3209 27.368 63.5115 26.7684 62.8362C26.1636 62.1554 25.4284 61.5819 24.5838 61.1424C23.7339 60.6975 22.7745 60.3973 21.7213 60.2419L21.2468 60.1722V59.1645L21.6379 59.0412C23.2803 58.5213 24.615 57.6476 25.6057 56.4416C26.5807 55.2624 27.076 53.7402 27.076 51.9231C27.076 50.1489 26.7371 48.7178 26.0697 47.6672C25.3919 46.6059 24.4951 45.7698 23.4054 45.1802C22.2896 44.5745 21.007 44.1671 19.5992 43.9634C18.1498 43.7544 16.6899 43.6472 15.256 43.6472H3.19618V77.2815ZM16.7785 71.9322H9.54154V62.8951H15.7305C16.3562 62.8951 17.0444 62.9487 17.7639 63.0452C18.5095 63.147 19.2134 63.3454 19.8599 63.6241C20.5482 63.9242 21.1269 64.3691 21.5805 64.9427C22.0602 65.5537 22.3001 66.3416 22.3001 67.285C22.3001 68.1372 22.1228 68.8769 21.7682 69.488C21.4241 70.0829 20.9705 70.5761 20.4283 70.9459C19.8964 71.3104 19.2916 71.573 18.6399 71.7178C18.0142 71.8625 17.3885 71.9322 16.7785 71.9322ZM10.6469 70.8012H16.7837C17.3155 70.8012 17.863 70.7369 18.4105 70.6189C18.9266 70.5064 19.4011 70.3027 19.8234 70.0133C20.2353 69.7345 20.5638 69.3754 20.8245 68.9198C21.0748 68.4856 21.1999 67.9389 21.1999 67.2957C21.1999 66.6043 21.0435 66.0683 20.7254 65.6609C20.3813 65.2267 19.959 64.8998 19.4376 64.6747C18.8797 64.4334 18.2697 64.2673 17.6179 64.1762C16.9453 64.0797 16.3145 64.0368 15.7357 64.0368H10.6521V70.8012H10.6469ZM15.4906 57.5458H9.54154V48.9965H15.157C15.7566 48.9965 16.3874 49.0555 17.0235 49.1787C17.6805 49.302 18.2853 49.5111 18.8067 49.8005C19.3646 50.106 19.8234 50.5402 20.178 51.0923C20.5377 51.6604 20.7202 52.368 20.7202 53.1934C20.7202 53.976 20.5586 54.6621 20.2405 55.241C19.9277 55.8091 19.5054 56.2755 18.984 56.6185C18.4835 56.9508 17.9203 57.1867 17.3051 57.3314C16.7159 57.4761 16.1007 57.5458 15.4906 57.5458ZM10.6469 56.4095H15.4906C16.0225 56.4095 16.5491 56.3505 17.0653 56.2272C17.5554 56.1147 18.0038 55.9217 18.3948 55.6644C18.765 55.4178 19.0622 55.0962 19.2864 54.6835C19.5106 54.2815 19.6201 53.7777 19.6201 53.1934C19.6201 52.5877 19.5002 52.0893 19.2551 51.7141C18.9996 51.3174 18.6868 51.0172 18.2853 50.7975C17.863 50.567 17.3677 50.3955 16.8202 50.2883C16.2519 50.1811 15.6888 50.1275 15.1517 50.1275H10.6417V56.4095H10.6469Z" fill="white"/>
<path d="M35.3086 43.6467H58.2812V50.7166H42.7593V57.1969H57.4209V64.2668H42.7593V71.3367H59.1415V78.4066H35.3086V43.6467Z" fill="white"/>
<path d="M76.8481 43.6467H83.011L97.7247 78.412H89.3146L86.4 71.0473H73.2661L70.4506 78.412H62.2334L76.8481 43.6467ZM79.7157 53.7665L75.6072 64.567H83.8713L79.7157 53.7665Z" fill="white"/>
<path d="M126.25 64.508C126.25 66.5234 125.953 68.378 125.364 70.0718C124.775 71.7655 123.894 73.2342 122.731 74.4831C121.563 75.732 120.114 76.7075 118.372 77.4097C116.631 78.1119 114.623 78.4656 112.355 78.4656C110.056 78.4656 108.033 78.1119 106.291 77.4097C104.55 76.7075 103.095 75.732 101.932 74.4831C100.765 73.2342 99.8886 71.7655 99.2995 70.0718C98.7103 68.378 98.4131 66.5234 98.4131 64.508V43.6467H105.687V64.2186C105.687 65.2745 105.848 66.2501 106.177 67.1452C106.505 68.0403 106.964 68.8175 107.553 69.4714C108.142 70.1254 108.851 70.6399 109.675 71.0044C110.499 71.3743 111.391 71.5565 112.355 71.5565C113.32 71.5565 114.206 71.3743 115.014 71.0044C115.822 70.6399 116.521 70.1254 117.115 69.4714C117.705 68.8175 118.164 68.0403 118.492 67.1452C118.82 66.2501 118.982 65.2745 118.982 64.2186V43.6467H126.256V64.508H126.25Z" fill="white"/>
<path d="M138.467 50.4272H128.821V43.6467H155.568V50.4218H145.923V78.412H138.472V50.4272H138.467Z" fill="white"/>
<path d="M163.843 63.5865L151.137 43.6525H160.402L167.566 56.6667L175.163 43.6525H184L171.294 63.5865V78.4178H163.843V63.5865V63.5865Z" fill="white"/>
<path d="M18.7963 122.617C16.1006 122.617 13.5771 122.177 11.2986 121.303C9.00969 120.43 7.00232 119.159 5.32865 117.524C3.65497 115.89 2.33585 113.885 1.40255 111.559C0.474469 109.249 0 106.627 0 103.787C0 100.94 0.474469 98.3247 1.40255 96.0092C2.33585 93.6883 3.65497 91.6836 5.32865 90.0435C6.99711 88.4087 9.00969 87.1383 11.2986 86.2646C13.5771 85.3963 16.1006 84.9514 18.7963 84.9514C19.7713 84.9514 20.8088 85.0425 21.8725 85.2301C22.9413 85.4177 24.005 85.7125 25.0321 86.1199C26.0697 86.5273 27.0812 87.074 28.0406 87.7547C29.0052 88.4408 29.8811 89.2877 30.6423 90.2739L30.9812 90.7135L24.4012 96.2343L24.0519 95.8002C23.3741 94.9533 22.5347 94.2993 21.5544 93.8437C20.5638 93.3881 19.3959 93.1577 18.0767 93.1577C16.7628 93.1577 15.5271 93.4203 14.4113 93.9402C13.2903 94.4601 12.3101 95.1998 11.4863 96.1378C10.6625 97.0759 10.0056 98.2122 9.54151 99.5147C9.07226 100.817 8.83763 102.254 8.83763 103.787C8.83763 105.352 9.07747 106.794 9.54151 108.08C10.0108 109.366 10.6573 110.497 11.4655 111.441C12.2736 112.379 13.233 113.113 14.3175 113.633C15.402 114.153 16.5803 114.416 17.8369 114.416C19.2655 114.416 20.5429 114.11 21.6326 113.504C22.7276 112.899 23.64 112.036 24.3491 110.937L24.6724 110.438L31.779 115.89L31.4661 116.34C29.9802 118.479 28.0719 120.076 25.7934 121.094C23.5409 122.107 21.1895 122.617 18.7963 122.617ZM18.7963 86.0877C16.231 86.0877 13.8378 86.5058 11.6792 87.3313C9.53108 88.1514 7.64885 89.3413 6.08988 90.8689C4.53091 92.3965 3.29521 94.2725 2.42448 96.4434C1.54854 98.6195 1.10536 101.096 1.10536 103.787C1.10536 106.483 1.54854 108.954 2.42448 111.13C3.30042 113.306 4.53091 115.182 6.08988 116.704C7.65407 118.232 9.53108 119.422 11.6792 120.242C13.8378 121.067 16.231 121.486 18.7963 121.486C21.033 121.486 23.2437 121.003 25.3606 120.06C27.295 119.197 28.9374 117.873 30.2565 116.131L24.9383 112.052C24.1823 113.076 23.249 113.896 22.1645 114.501C20.9131 115.198 19.4584 115.552 17.8421 115.552C16.4291 115.552 15.0891 115.252 13.8587 114.662C12.6334 114.078 11.5541 113.247 10.6469 112.191C9.74486 111.146 9.03055 109.897 8.51437 108.477C7.99819 107.062 7.73749 105.486 7.73749 103.787C7.73749 102.12 7.99819 100.555 8.51437 99.1234C9.03055 97.6869 9.75528 96.4273 10.6782 95.3821C11.601 94.3315 12.7064 93.5007 13.9629 92.9111C15.2247 92.3215 16.6116 92.0267 18.0819 92.0267C19.5523 92.0267 20.8766 92.2893 22.008 92.8146C22.9778 93.2595 23.8277 93.8813 24.542 94.6585L29.4327 90.5527C28.8227 89.8344 28.1449 89.2073 27.4149 88.6927C26.5285 88.0656 25.6004 87.5618 24.6411 87.1866C23.6765 86.8114 22.6859 86.5273 21.69 86.3557C20.6889 86.1735 19.7139 86.0877 18.7963 86.0877Z" fill="white"/>
<path d="M34.6987 86.1144H42.2746V114.265H56.3053V121.453H34.6987V86.1144Z" fill="white"/>
<path d="M87.6983 107.48C87.6983 109.544 87.3959 111.441 86.7911 113.178C86.1863 114.914 85.2843 116.421 84.0903 117.696C82.8963 118.972 81.4051 119.974 79.6219 120.693C77.8388 121.411 75.7845 121.775 73.4591 121.775C71.1024 121.775 69.0324 121.416 67.2492 120.693C65.4661 119.974 63.9749 118.972 62.7809 117.696C61.5869 116.421 60.6849 114.914 60.0801 113.178C59.4753 111.441 59.1729 109.544 59.1729 107.48V86.1202H66.6236V107.185C66.6236 108.268 66.7904 109.265 67.1241 110.181C67.4578 111.098 67.9271 111.891 68.5319 112.561C69.1367 113.231 69.8614 113.757 70.7061 114.132C71.5508 114.507 72.4632 114.695 73.4538 114.695C74.4393 114.695 75.3465 114.507 76.1755 114.132C77.0045 113.757 77.7189 113.231 78.3237 112.561C78.9285 111.891 79.3977 111.098 79.7314 110.181C80.0651 109.265 80.232 108.268 80.232 107.185V86.1202H87.6827V107.48H87.6983Z" fill="white"/>
<path d="M90.8267 86.1144H103.643C105.128 86.1144 106.63 86.2216 108.132 86.4414C109.639 86.6558 110.989 87.0899 112.188 87.7385C113.387 88.3871 114.357 89.2929 115.103 90.4614C115.848 91.6245 116.219 93.1736 116.219 95.1032C116.219 97.0972 115.676 98.7534 114.592 100.072C113.507 101.385 112.073 102.329 110.296 102.891V102.993C111.427 103.159 112.454 103.486 113.377 103.969C114.3 104.451 115.092 105.068 115.755 105.818C116.417 106.568 116.928 107.442 117.282 108.439C117.637 109.436 117.814 110.503 117.814 111.634C117.814 113.499 117.423 115.053 116.646 116.302C115.869 117.551 114.868 118.559 113.638 119.32C112.407 120.086 111.025 120.633 109.487 120.965C107.949 121.298 106.422 121.464 104.899 121.464H90.8267V86.1144ZM98.3973 100.238H103.882C104.466 100.238 105.04 100.174 105.608 100.04C106.177 99.9058 106.682 99.6914 107.136 99.3913C107.589 99.0911 107.954 98.6945 108.226 98.196C108.502 97.6975 108.637 97.0972 108.637 96.4004C108.637 95.6714 108.481 95.0603 108.179 94.5779C107.871 94.0955 107.475 93.7203 106.99 93.4523C106.505 93.1843 105.952 92.9967 105.337 92.8788C104.722 92.7609 104.122 92.7019 103.543 92.7019H98.3973V100.238V100.238ZM98.3973 114.86H105.196C105.78 114.86 106.369 114.796 106.969 114.662C107.569 114.528 108.111 114.298 108.596 113.965C109.081 113.633 109.477 113.199 109.785 112.668C110.092 112.137 110.249 111.489 110.249 110.722C110.249 109.892 110.045 109.216 109.644 108.702C109.237 108.187 108.731 107.796 108.116 107.528C107.501 107.26 106.839 107.078 106.124 106.981C105.41 106.879 104.748 106.831 104.133 106.831H98.4025V114.86H98.3973Z" fill="white"/>
</svg>
